<svg width="666" height="604" viewBox="0 0 666 604" fill="none" xmlns="http://www.w3.org/2000/svg">
<g opacity="0.426687">
<path fill-rule="evenodd" clip-rule="evenodd" d="M206.134 -343.808C222.859 -395.282 278.146 -423.453 329.621 -406.727L947.808 -205.866C999.282 -189.141 1027.45 -133.854 1010.73 -82.3792L809.866 535.808C793.141 587.282 737.854 615.453 686.379 598.727L68.1924 397.866C16.7175 381.141 -11.4527 325.854 5.27252 274.379L206.134 -343.808Z" fill="#20F7AE"/>
<path fill-rule="evenodd" clip-rule="evenodd" d="M206.134 -343.808C222.859 -395.282 278.146 -423.453 329.621 -406.727L947.808 -205.866C999.282 -189.141 1027.45 -133.854 1010.73 -82.3792L809.866 535.808C793.141 587.282 737.854 615.453 686.379 598.727L68.1924 397.866C16.7175 381.141 -11.4527 325.854 5.27252 274.379L206.134 -343.808Z" fill="url(#paint0_linear)"/>
</g>
<defs>
<linearGradient id="paint0_linear" x1="549.661" y1="-25.4863" x2="339.041" y2="446.032" gradientUnits="userSpaceOnUse">
<stop stop-color="#2CF6A7"/>
<stop offset="1" stop-color="#99EE62"/>
</linearGradient>
</defs>
</svg>
