<?xml version="1.0" encoding="UTF-8"?>
<svg width="250px" height="28px" viewBox="0 0 250 28" version="1.1" xmlns="http://www.w3.org/2000/svg" xmlns:xlink="http://www.w3.org/1999/xlink">
    <title>Group 2</title>
    <defs>
        <polygon id="path-1" points="0 0.0905686486 191.787215 0.0905686486 191.787215 16.7984825 0 16.7984825"></polygon>
        <polygon id="path-3" points="0.117821768 0.062892973 2.26470233 0.062892973 2.26470233 2.35097946 0.117821768 2.35097946"></polygon>
        <polygon id="path-5" points="0.0117185013 0.0640530492 162.295157 0.0640530492 162.295157 26.5069394 0.0117185013 26.5069394"></polygon>
    </defs>
    <g id="Page-1" stroke="none" stroke-width="1" fill="none" fill-rule="evenodd">
        <g id="Sign-in" transform="translate(-33.000000, -27.000000)">
            <g id="Group-2" transform="translate(33.000000, 27.000000)">
                <path d="M208.389456,10.4530154 L208.389456,13.911641 L207,13.911641 L207,5 L209.92517,5 C210.916483,5 211.661987,5.24403683 212.161706,5.73211781 C212.661425,6.22019879 212.911281,6.88919631 212.911281,7.73913043 C212.911281,8.58064937 212.655331,9.24333559 212.143424,9.72720898 C211.631517,10.2110824 210.892106,10.4530154 209.92517,10.4530154 L208.389456,10.4530154 Z M209.778912,9.27910238 C210.924609,9.27910238 211.497449,8.76578353 211.497449,7.73913043 C211.497449,7.23421907 211.361349,6.84922994 211.089144,6.58415147 C210.816939,6.31907301 210.3802,6.18653576 209.778912,6.18653576 L208.389456,6.18653576 L208.389456,9.27910238 L209.778912,9.27910238 Z M215.519558,8.3197756 C215.747072,7.86535537 216.072088,7.50561142 216.494615,7.24053296 C216.917141,6.9754545 217.404665,6.84291725 217.9572,6.84291725 L217.9572,8.40813464 L217.5428,8.40813464 C216.933387,8.40813464 216.443832,8.56170954 216.074121,8.86886396 C215.70441,9.17601837 215.519558,9.68302592 215.519558,10.3899018 L215.519558,13.911641 L214.130102,13.911641 L214.130102,6.95652174 L215.519558,6.95652174 L215.519558,8.3197756 Z M222.064626,6.86816269 C222.714667,6.86816269 223.299695,7.01121877 223.819728,7.2973352 C224.339761,7.58345164 224.74603,7.99578973 225.038549,8.53436185 C225.331067,9.07293397 225.477324,9.7040637 225.477324,10.42777 C225.477324,11.1598915 225.331067,11.7952287 225.038549,12.3338008 C224.74603,12.872373 224.339761,13.2847111 223.819728,13.5708275 C223.299695,13.8569439 222.714667,14 222.064626,14 C221.414585,14 220.831588,13.8569439 220.315618,13.5708275 C219.799648,13.2847111 219.393378,12.8702692 219.096797,12.3274895 C218.800216,11.7847098 218.651927,11.1514763 218.651927,10.42777 C218.651927,9.7040637 218.800216,9.07293397 219.096797,8.53436185 C219.393378,7.99578973 219.799648,7.58345164 220.315618,7.2973352 C220.831588,7.01121877 221.414585,6.86816269 222.064626,6.86816269 Z M222.064626,8.11781206 C221.707103,8.11781206 221.378025,8.20196269 221.077381,8.37026648 C220.776737,8.53857027 220.535007,8.79733346 220.352183,9.14656381 C220.169358,9.49579417 220.077948,9.92285863 220.077948,10.42777 C220.077948,10.9410965 220.169358,11.3702648 220.352183,11.7152875 C220.535007,12.0603103 220.776737,12.3169697 221.077381,12.4852735 C221.378025,12.6535773 221.707103,12.7377279 222.064626,12.7377279 C222.422148,12.7377279 222.751227,12.6535773 223.051871,12.4852735 C223.352515,12.3169697 223.594245,12.0603103 223.777069,11.7152875 C223.959893,11.3702648 224.051304,10.9410965 224.051304,10.42777 C224.051304,9.92285863 223.959893,9.49579417 223.777069,9.14656381 C223.594245,8.79733346 223.352515,8.53857027 223.051871,8.37026648 C222.751227,8.20196269 222.422148,8.11781206 222.064626,8.11781206 Z M230.194161,12.6619916 L230.194161,13.911641 L229.340986,13.911641 C228.625941,13.911641 228.083571,13.7328209 227.713861,13.3751753 C227.34415,13.0175298 227.159297,12.4221641 227.159297,11.5890603 L227.159297,8.18092567 L226.196429,8.18092567 L226.196429,6.95652174 L227.159297,6.95652174 L227.159297,5.22720898 L228.560941,5.22720898 L228.560941,6.95652174 L230.181973,6.95652174 L230.181973,8.18092567 L228.560941,8.18092567 L228.560941,11.6143058 C228.560941,12.0098196 228.632038,12.2833092 228.774235,12.4347826 C228.916431,12.586256 229.166287,12.6619916 229.52381,12.6619916 L230.194161,12.6619916 Z M237.738662,10.0995792 C237.738662,10.3352045 237.722411,10.5413736 237.689909,10.7180926 L232.522109,10.7180926 C232.546485,11.4333837 232.737432,11.9635326 233.094955,12.3085554 C233.452477,12.6535782 233.895311,12.826087 234.423469,12.826087 C234.886624,12.826087 235.278674,12.7040685 235.599632,12.4600281 C235.920589,12.2159876 236.11763,11.8920076 236.19076,11.4880785 L237.677721,11.4880785 C237.58834,11.9761595 237.401456,12.4095353 237.117063,12.7882188 C236.832671,13.1669023 236.462965,13.4635333 236.007937,13.6781206 C235.552908,13.8927079 235.045071,14 234.48441,14 C233.834369,14 233.259498,13.8569439 232.759779,13.5708275 C232.26006,13.2847111 231.86801,12.872373 231.583617,12.3338008 C231.299224,11.7952287 231.157029,11.1598915 231.157029,10.42777 C231.157029,9.7040637 231.299224,9.07293397 231.583617,8.53436185 C231.86801,7.99578973 232.26006,7.58345164 232.759779,7.2973352 C233.259498,7.01121877 233.834369,6.86816269 234.48441,6.86816269 C235.142577,6.86816269 235.717448,7.009115 236.209042,7.29102384 C236.700635,7.57293269 237.078466,7.96002559 237.342545,8.45231417 C237.606625,8.94460274 237.738662,9.49368561 237.738662,10.0995792 Z M236.337018,10.0617111 C236.353269,9.60729086 236.278109,9.22650925 236.111536,8.91935484 C235.944963,8.61220043 235.717452,8.38499372 235.428997,8.23772791 C235.140541,8.0904621 234.825682,8.01683029 234.48441,8.01683029 C233.940001,8.01683029 233.484979,8.18933909 233.119331,8.53436185 C232.753683,8.87938461 232.554611,9.38849593 232.522109,10.0617111 L236.337018,10.0617111 Z M242.065476,6.86816269 C242.934906,6.86816269 243.654003,7.10588823 244.222789,7.58134642 C244.791575,8.05680462 245.14503,8.70266072 245.283163,9.51893408 L243.80839,9.51893408 C243.727135,9.08134424 243.530094,8.73843041 243.217262,8.49018233 C242.90443,8.24193424 242.51238,8.11781206 242.0411,8.11781206 C241.504816,8.11781206 241.057919,8.31346228 240.700397,8.70476858 C240.342874,9.09607489 240.164116,9.67040295 240.164116,10.42777 C240.164116,11.185137 240.342874,11.7615688 240.700397,12.1570827 C241.057919,12.5525966 241.504816,12.7503506 242.0411,12.7503506 C242.51238,12.7503506 242.90443,12.6241247 243.217262,12.371669 C243.530094,12.1192133 243.727135,11.7741957 243.80839,11.3366059 L245.283163,11.3366059 C245.14503,12.1528793 244.791575,12.8008391 244.222789,13.2805049 C243.654003,13.7601707 242.934906,14 242.065476,14 C241.415435,14 240.840564,13.8569439 240.340845,13.5708275 C239.841126,13.2847111 239.449075,12.872373 239.164683,12.3338008 C238.88029,11.7952287 238.738095,11.1598915 238.738095,10.42777 C238.738095,9.7040637 238.88029,9.07293397 239.164683,8.53436185 C239.449075,7.99578973 239.841126,7.58345164 240.340845,7.2973352 C240.840564,7.01121877 241.415435,6.86816269 242.065476,6.86816269 Z M250,12.6619916 L250,13.911641 L249.146825,13.911641 C248.43178,13.911641 247.88941,13.7328209 247.5197,13.3751753 C247.149989,13.0175298 246.965136,12.4221641 246.965136,11.5890603 L246.965136,8.18092567 L246.002268,8.18092567 L246.002268,6.95652174 L246.965136,6.95652174 L246.965136,5.22720898 L248.36678,5.22720898 L248.36678,6.95652174 L249.987812,6.95652174 L249.987812,8.18092567 L248.36678,8.18092567 L248.36678,11.6143058 C248.36678,12.0098196 248.437877,12.2833092 248.580074,12.4347826 C248.72227,12.586256 248.972126,12.6619916 249.329649,12.6619916 L250,12.6619916 Z" id="Protect" fill="#21F7AF"></path>
                <g id="Page-1">
                    <g id="Group-3">
                        <mask id="mask-2" fill="white">
                            <use xlink:href="#path-1"></use>
                        </mask>
                        <g id="Clip-2"></g>
                        <path d="M188.060132,16.5157985 L188.060132,10.1089949 L183.196008,10.1089949 L183.196008,16.5157985 L179.468925,16.5157985 L179.468925,0.341787676 L183.196008,0.341787676 L183.196008,6.56018912 L188.060132,6.56018912 L188.060132,0.341787676 L191.787215,0.341787676 L191.787215,16.5157985 L188.060132,16.5157985 Z M173.436099,3.54510876 L173.436099,16.5157985 L169.709016,16.5157985 L169.709016,3.60790948 L165.476491,3.60790948 L165.476491,0.341787676 L177.731784,0.341787676 L177.731784,3.60790948 L173.436099,3.60790948 L173.436099,3.54510876 Z M155.148143,16.5157985 L155.148143,0.341787676 L158.875227,0.341787676 L158.875227,13.2496767 L165.981933,13.2496767 L165.981933,16.6100803 L155.148143,16.5157985 Z M126.879138,16.5157985 L126.879138,0.341787676 L137.839085,0.341787676 L137.839085,3.60790948 L130.606221,3.60790948 L130.606221,6.68579056 L136.702206,6.68579056 L136.702206,9.95191236 L130.606221,9.95191236 L130.606221,13.1553949 L137.933906,13.1553949 L137.933906,16.5157985 L126.879138,16.5157985 Z M120.561849,16.5157985 L120.561849,10.1089949 L115.697726,10.1089949 L115.697726,16.5157985 L111.970642,16.5157985 L111.970642,0.341787676 L115.697726,0.341787676 L115.697726,6.56018912 L120.561849,6.56018912 L120.561849,0.341787676 L124.288933,0.341787676 L124.288933,16.5157985 L120.561849,16.5157985 Z M92.5139848,16.7984825 C89.923942,16.7984825 87.649861,16.0133927 86.1968587,13.8776839 L88.5657607,11.585054 C89.3555029,12.8099102 90.7768441,13.6578006 92.3561662,13.6578006 C93.4298844,13.6578006 94.7249059,13.2181956 94.7249059,12.0876212 C94.7249059,11.2395693 94.1564668,10.862765 93.3668869,10.580081 C93.0194263,10.4229985 91.2821233,9.95191236 90.7768441,9.79499128 C88.6920804,9.22962335 86.8917799,8.00476714 86.8917799,5.30385182 C86.8917799,2.22613218 89.197522,0.0904233514 92.5456459,0.0904233514 C95.1355264,0.0904233514 96.9991492,0.875674523 98.1361897,2.57161686 L95.7041278,4.76996497 C94.9777078,3.764992 93.7773451,3.19978551 92.5456459,3.19978551 C91.4716029,3.19978551 90.5240422,3.70219128 90.5240422,4.76996497 C90.5240422,5.77493795 91.4716029,5.99482119 92.5456459,6.27750515 C92.8931065,6.43458768 94.3459465,6.77991092 94.756567,6.9056738 C96.9674881,7.53368101 98.4836503,8.82133795 98.4836503,11.4594525 C98.5468102,15.0395779 95.6093068,16.7984825 92.5139848,16.7984825 L92.5139848,16.7984825 Z M84.0805962,6.96831308 L82.1539759,6.96831308 L81.7116942,3.19978551 L81.7116942,0.121904432 L84.5860378,0.121904432 L84.5860378,3.19978551 L84.0805962,6.96831308 Z M73.3731267,3.48230804 L71.0673846,3.48230804 L71.0673846,7.75356425 L73.3731267,7.75356425 C74.731308,7.75356425 75.5210503,6.9056738 75.5210503,5.61801686 C75.5210503,4.11047668 74.6049883,3.48230804 73.3731267,3.48230804 L73.3731267,3.48230804 Z M75.7420287,16.5157985 L72.8046877,10.7999643 L71.0673846,10.7999643 L71.0673846,16.5157985 L67.3403013,16.5157985 L67.3403013,0.341787676 L73.8785683,0.341787676 C75.3945681,0.341787676 76.531771,0.68727236 77.4793318,1.40956137 C78.6163723,2.35173362 79.2796324,3.82779272 79.2796324,5.39813362 C79.2796324,7.40807957 78.4268926,9.32390515 76.4686111,10.1717956 L79.9113937,16.5157985 L75.7420287,16.5157985 Z M53.9481304,16.5157985 L53.9481304,0.341787676 L64.9082395,0.341787676 L64.9082395,3.60790948 L57.6752137,3.60790948 L57.6752137,6.68579056 L63.771199,6.68579056 L63.771199,9.95191236 L57.6752137,9.95191236 L57.6752137,13.1553949 L65.0030605,13.1553949 L65.0030605,16.5157985 L53.9481304,16.5157985 Z M47.757324,10.1089949 L47.757324,16.5157985 L44.0302407,16.5157985 L44.0302407,10.1089949 L39.1029571,0.341787676 L43.0510188,0.341787676 L45.9885222,6.68579056 L48.9260257,0.341787676 L52.5899491,0.341787676 L47.757324,10.1089949 Z M13.8344526,16.5157985 L13.8344526,0.341787676 L17.5615359,0.341787676 L17.5615359,13.2496767 L24.6682419,13.2496767 L24.6682419,16.6100803 L13.8344526,16.5157985 Z M6.15914519,3.48230804 L3.7270833,3.48230804 L3.7270833,7.75356425 L6.15914519,7.75356425 C7.4541666,7.75356425 8.30706874,7.0311138 8.30706874,5.5550547 C8.30706874,4.17327741 7.4541666,3.48230804 6.15914519,3.48230804 L6.15914519,3.48230804 Z M6.82240528,10.8940846 L3.7270833,10.8940846 L3.7270833,16.5157985 L0,16.5157985 L0,0.341787676 L6.72774662,0.341787676 C10.0125483,0.341787676 11.9709921,2.54013578 11.9709921,5.5550547 C11.9709921,8.1931693 10.486491,10.8940846 6.82240528,10.8940846 L6.82240528,10.8940846 Z" id="Fill-1" fill="#FFFFFF" mask="url(#mask-2)"></path>
                    </g>
                    <path d="M12.3718083,18.1621622 C13.205084,18.1621622 13.8806561,18.8398057 13.8806561,19.6756009 C13.8806561,20.5115457 13.205084,21.1891892 12.3718083,21.1891892 C11.5385327,21.1891892 10.8631222,20.5115457 10.8631222,19.6756009 C10.8631222,18.8398057 11.5385327,18.1621622 12.3718083,18.1621622" id="Fill-4" fill="#21F7AF"></path>
                    <path d="M7.84558824,18.1621622 C8.51226373,18.1621622 9.05260181,18.7041662 9.05260181,19.3728932 C9.05260181,20.0416202 8.51226373,20.5837838 7.84558824,20.5837838 C7.17891274,20.5837838 6.63857466,20.0416202 6.63857466,19.3728932 C6.63857466,18.7041662 7.17891274,18.1621622 7.84558824,18.1621622" id="Fill-6" fill="#21F7AF"></path>
                    <path d="M180.750364,18.1621622 C181.583478,18.1621622 182.25905,18.8398057 182.25905,19.6756009 C182.25905,20.5115457 181.583478,21.1891892 180.750364,21.1891892 C179.917088,21.1891892 179.241516,20.5115457 179.241516,19.6756009 C179.241516,18.8398057 179.917088,18.1621622 180.750364,18.1621622" id="Fill-8" fill="#21F7AF"></path>
                    <path d="M104.708428,18.1621622 C105.541659,18.1621622 106.217195,18.8398057 106.217195,19.6756009 C106.217195,20.5115457 105.541659,21.1891892 104.708428,21.1891892 C103.875197,21.1891892 103.199661,20.5115457 103.199661,19.6756009 C103.199661,18.8398057 103.875197,18.1621622 104.708428,18.1621622" id="Fill-10" fill="#21F7AF"></path>
                    <path d="M185.880177,18.1621622 C186.546632,18.1621622 187.087104,18.7041662 187.087104,19.3728932 C187.087104,20.0416202 186.546632,20.5837838 185.880177,20.5837838 C185.213549,20.5837838 184.673077,20.0416202 184.673077,19.3728932 C184.673077,18.7041662 185.213549,18.1621622 185.880177,18.1621622" id="Fill-12" fill="#21F7AF"></path>
                    <path d="M109.234729,18.1621622 C109.901404,18.1621622 110.441742,18.7041662 110.441742,19.3728932 C110.441742,20.0416202 109.901404,20.5837838 109.234729,20.5837838 C108.568053,20.5837838 108.027715,20.0416202 108.027715,19.3728932 C108.027715,18.7041662 108.568053,18.1621622 109.234729,18.1621622" id="Fill-14" fill="#21F7AF"></path>
                    <path d="M100.785547,18.1621622 C101.452175,18.1621622 101.992647,18.7041662 101.992647,19.3728932 C101.992647,20.0416202 101.452175,20.5837838 100.785547,20.5837838 C100.119092,20.5837838 99.5786199,20.0416202 99.5786199,19.3728932 C99.5786199,18.7041662 100.119092,18.1621622 100.785547,18.1621622" id="Fill-16" fill="#21F7AF"></path>
                    <g id="Group-20" transform="translate(190.708145, 18.162162)">
                        <mask id="mask-4" fill="white">
                            <use xlink:href="#path-3"></use>
                        </mask>
                        <g id="Clip-19"></g>
                        <path d="M1.1912017,0.062892973 C1.78401779,0.062892973 2.26475406,0.575065946 2.26475406,1.20676324 C2.26475406,1.83880649 1.78401779,2.35097946 1.1912017,2.35097946 C0.598385601,2.35097946 0.117821768,1.83880649 0.117821768,1.20676324 C0.117821768,0.575065946 0.598385601,0.062892973 1.1912017,0.062892973" id="Fill-18" fill="#21F7AF" mask="url(#mask-4)"></path>
                    </g>
                    <g id="Group-23" transform="translate(16.294683, 0.605405)">
                        <mask id="mask-6" fill="white">
                            <use xlink:href="#path-5"></use>
                        </mask>
                        <g id="Clip-22"></g>
                        <path d="M160.689366,16.9171328 L141.104416,16.9171328 C140.537752,16.9171328 140.034051,17.263016 139.750638,17.8603919 L138.459499,20.8472714 L131.375147,1.07034698 C131.154535,0.44145368 130.587871,0.0640530492 130.021045,0.0640530492 C129.454381,0.0640530492 128.887717,0.504326847 128.667105,1.07034698 L122.936531,16.854098 L97.3377562,16.854098 C96.5504801,16.854098 95.8263286,17.5773818 95.8263286,18.4262504 C95.8263286,19.2752806 96.4559552,19.9984029 97.3377562,19.9984029 L123.944257,19.9984029 C124.510921,19.9984029 125.077747,19.5582907 125.298036,18.9922705 L130.021045,6.00661793 L137.042596,25.5006939 C137.263208,26.0667141 137.766909,26.5069879 138.396698,26.5069879 L138.459499,26.5069879 C139.026325,26.5069879 139.530188,26.160943 139.813439,25.5637287 L142.112143,20.061276 L160.783729,20.061276 C161.570843,20.061276 162.295157,19.3381538 162.295157,18.4892852 C162.200632,17.640255 161.47648,16.9171328 160.689366,16.9171328 M81.1220373,16.9171328 L28.5703859,16.9171328 C28.0035601,16.9171328 27.4998588,17.263016 27.2164458,17.8603919 L25.9254684,20.8472714 L18.8409546,1.07034698 C18.6205043,0.44145368 18.0536785,0.0640530492 17.4870145,0.0640530492 C16.9201886,0.0640530492 16.3533628,0.504326847 16.1330744,1.07034698 L10.4023388,16.854098 L1.52314619,16.854098 C0.736031944,16.854098 0.0117185013,17.5773818 0.0117185013,18.4262504 C0.0117185013,19.2752806 0.641507016,19.9984029 1.52314619,19.9984029 L11.4099033,19.9984029 C11.9767291,19.9984029 12.543555,19.5582907 12.7640053,18.9922705 L17.4870145,6.00661793 L24.5085656,25.5006939 C24.7290159,26.0667141 25.2327172,26.5069879 25.8625057,26.5069879 L25.9254684,26.5069879 C26.4922942,26.5069879 26.9959956,26.160943 27.2794085,25.5637287 L29.5779504,20.061276 L81.2164004,20.061276 C82.0035146,20.061276 82.7278281,19.3381538 82.7278281,18.4892852 C82.5389401,17.640255 81.9091516,16.9171328 81.1220373,16.9171328" id="Fill-21" fill="#21F7AF" mask="url(#mask-6)"></path>
                    </g>
                </g>
            </g>
        </g>
    </g>
</svg>